<svg id="Layer_1" data-name="Layer 1" xmlns="http://www.w3.org/2000/svg" viewBox="0 0 427.31 326.38"><title>La Liga 2023 logo - Brandlogos.net</title><path d="M0,300.4V244.24H15.4v57.5H42.61v14.37H8.94l-6.06-7.49A12.57,12.57,0,0,1,0,300.41m87.8-9L79.69,258.6H78.05l-8.11,32.86H87.8ZM50.94,304.4l16.63-60.17H85.23c3.29,0,5.34,1.54,6.26,4.83l15.3,55.34a22.59,22.59,0,0,1,.82,7.29v4.42H93.95l-5.44-21.87L66.43,305.53l-2.67,10.58H50.1v-4.42a22.59,22.59,0,0,1,.82-7.29m63.68-4V244.24H130v57.5h27.21v14.37H123.53l-6.06-7.49a12.57,12.57,0,0,1-2.88-8.21m51.35-56.18h15.4V316.1h-15.4Zm25.87,49.06V267.05c0-15.3,8.32-23.62,23.62-23.62h6.74c15.09,0,23.62,7.7,23.62,21.36h-15.4v-2.88c0-2.67-1.44-4.11-4.11-4.11h-15c-2.67,0-4.11,1.44-4.11,4.11v36.51c0,2.67,1.44,4.11,4.11,4.11h15c2.67,0,4.11-1.44,4.11-4.11v-9H219.71V275h17.15l6.06,7.49a12,12,0,0,1,2.88,8.21v2.57c0,15.3-8.32,23.62-23.62,23.62h-6.74c-15.3,0-23.62-8.32-23.62-23.62m96.29-1.82L280,258.6h-1.64l-8.11,32.86h17.86ZM251.25,304.4l16.63-60.17h17.66c3.29,0,5.34,1.54,6.26,4.83l15.3,55.34a22.59,22.59,0,0,1,.82,7.29v4.42H294.26l-5.44-21.87-22.08,11.29-2.67,10.58H250.41v-4.42a22.59,22.59,0,0,1,.82-7.29m137-15.17h-2.89v3.57h2.89a.82.82,0,0,0,.63-.27,1.11,1.11,0,0,0,.24-.73v-1.54a1.13,1.13,0,0,0-.23-.74.79.79,0,0,0-.63-.29m-10.89,0h-2.12a.79.79,0,0,0-.65.28,1.13,1.13,0,0,0-.24.74v6.4a1.12,1.12,0,0,0,.23.73.85.85,0,0,0,.65.31h2.12a.77.77,0,0,0,.63-.3,1.12,1.12,0,0,0,.26-.73v-6.4a1,1,0,0,0-.24-.74.8.8,0,0,0-.63-.29m-10.59,0h-3v3.87h3a.83.83,0,0,0,.64-.28,1.07,1.07,0,0,0,.25-.74v-1.82a1.09,1.09,0,0,0-.25-.74.8.8,0,0,0-.63-.29" style="fill:#ff4b44"/><path d="M414.07,288.87V288a.61.61,0,0,1-.06.13l-.38.59h0l-.39-.6-.07-.12s0,.09,0,.13v.74h-.2v-1.21h.21l.47.73.48-.73h.18v1.21h-.22Zm-1.4-1h-.47v1H412v-1h-.47v-.21h1.18Zm-1.36,9.2a2.65,2.65,0,0,1-2.66,2.66h-3.12a2.59,2.59,0,0,1-1.87-.75,2.52,2.52,0,0,1-.75-1.87v-1.24h1.93l.29,1.15a.93.93,0,0,0,1,.72h2.12a.78.78,0,0,0,.65-.29,1.11,1.11,0,0,0,.24-.73v-1.37c0-.67-.29-1-.88-1h-2.66a2.51,2.51,0,0,1-1.87-.78,2.61,2.61,0,0,1-.78-1.88v-1.8a2.55,2.55,0,0,1,.79-1.86,2.49,2.49,0,0,1,1.88-.77h3.08a2.58,2.58,0,0,1,1.86.75,2.51,2.51,0,0,1,.75,1.86V291h-1.92l-.29-1a.94.94,0,0,0-1-.72H406a.78.78,0,0,0-.65.29,1.13,1.13,0,0,0-.24.74v1c0,.65.3,1,.89,1h2.66a2.72,2.72,0,0,1,2.65,2.67v2.11h0Zm-10-7.82h-3.2l0,10.46h-2.21l0-10.47h-3.17v-2h8.59v2ZM389.48,299.7l-2-4.89h-2.09v4.88h-2.21l0-12.49h5.52a2.54,2.54,0,0,1,1.88.79,2.51,2.51,0,0,1,.77,1.85V292a2.71,2.71,0,0,1-.47,1.54,3,3,0,0,1-1.22,1l2.18,5.16h-2.35ZM381,284.23l-30.09,0,7.34-11.55h-5.37l3.66-5.78,22.38,0-3.67,5.77-10,0-3.72,5.78,16.16,0,14.8-23.3,18.34,29.12h-6.94l-3.64-5.79-10.87,0,3.66-5.78h3.56l-4.13-6.57L381,284.21v0ZM380.46,297a2.48,2.48,0,0,1-.79,1.9,2.55,2.55,0,0,1-1.88.78h-3a2.58,2.58,0,0,1-1.89-.79,2.55,2.55,0,0,1-.78-1.9v-7.18a2.59,2.59,0,0,1,.79-1.85,2.55,2.55,0,0,1,1.89-.77h3a2.55,2.55,0,0,1,1.88.78,2.47,2.47,0,0,1,.78,1.86Zm-10.58-4.57a2.53,2.53,0,0,1-.78,1.87,2.61,2.61,0,0,1-1.89.78h-3.44v4.58h-2.21l0-12.49h5.64a2.66,2.66,0,0,1,1.89.79,2.53,2.53,0,0,1,.77,1.85ZM359,297a2.65,2.65,0,0,1-2.64,2.66H353.2a2.55,2.55,0,0,1-1.86-.75,2.49,2.49,0,0,1-.74-1.87v-1.24h1.93l.28,1.15a.92.92,0,0,0,1,.72h2.12a.81.81,0,0,0,.65-.29,1.11,1.11,0,0,0,.24-.73v-1.36c0-.67-.29-1-.88-1h-2.66a2.61,2.61,0,0,1-1.89-.78,2.55,2.55,0,0,1-.76-1.88v-1.8a2.57,2.57,0,0,1,.77-1.86,2.6,2.6,0,0,1,1.89-.77h3.09a2.6,2.6,0,0,1,1.86.75,2.53,2.53,0,0,1,.75,1.86v1.12h-1.91l-.29-1a.94.94,0,0,0-1-.72h-2.09a.78.78,0,0,0-.65.29,1.09,1.09,0,0,0-.25.74v1c0,.65.29,1,.89,1h2.66a2.52,2.52,0,0,1,1.86.8,2.57,2.57,0,0,1,.77,1.87V297l0,0Zm4.88-41.68,23.76,0L384,261.11l-23.75,0,3.64-5.77Zm17.31-21.37a46.22,46.22,0,1,0,46.15,46.29,46.22,46.22,0,0,0-46.15-46.29M152.24,172.76c0-6,2.4-12.48,6.72-18.72L267.18,0h62.63L208.4,172.76h54.71l-84.94,43.19-18.24-23.27c-5-6.48-7.68-13-7.68-19.92M104,84.94,162.8,0h56.87L146.49,104.14H194l-73.9,37.67-14.88-19c-5.28-7-7.68-12.24-7.68-19.44,0-6.48,2.4-12.72,6.48-18.48" style="fill:#ff4b44"/></svg>