<svg id="Layer_1" data-name="Layer 1" xmlns="http://www.w3.org/2000/svg" width="229.83" height="75.76" viewBox="0 0 229.83 75.76"><title>Liga Portugal logo - Brandlogos.net</title><path d="M347.69,370.62c18,25.45,13.07,51.26,13.07,51.26s-2.46-29.15-24-53l6.45-3.59a71.66,71.66,0,0,0-21.9-19.17,47.92,47.92,0,0,1,32.47,21.12Zm-16.58,1.9L334,386.08l8.07,2.77,1-1.32a61.87,61.87,0,0,0-12-15M273.87,390.8h7.4a32.49,32.49,0,0,1-.44,4.57H269.08V364.88h4.79Zm9.36-25.91H288v30.49h-4.79Zm22.65,8.71a23.54,23.54,0,0,1-4.79.65v-4.79a5.66,5.66,0,0,0-4.35,0V390.8a5.66,5.66,0,0,0,4.35,0V382.3a6.49,6.49,0,0,0-3-2.18v-2.61h7.84v13.07c0,3.75-3.66,5.23-7,5.23s-7-1.48-7-5.23v-20.9c0-3.75,3.66-5.23,7-5.23s7,1.48,7,5.23Zm18.73,21.78h-4.83l-.57-4.09a10.41,10.41,0,0,0-4.18-2l.44-2.61h3.09l-1.87-13.5h-.26l-3.09,22.21H308.5l4.57-30.49a33.57,33.57,0,0,1,3.61-.22,32.78,32.78,0,0,1,3.57.22Zm40.61-30.49h7c3.31,0,7,1.48,7,5.23v11.32c0,3.75-3.66,5.23-7,5.23h-1.31V384a8,8,0,0,0,3.48-2.18v-12a5.45,5.45,0,0,0-2.18-.44H370v25.91h-4.79Zm31.57,4.79v20.9c0,3.75-3.66,5.23-7,5.23s-7-1.48-7-5.23v-20.9c0-3.75,3.66-5.23,7-5.23s7,1.48,7,5.23m-4.79-.22a5.66,5.66,0,0,0-4.36,0V390.8a5.66,5.66,0,0,0,4.36,0Zm23.08,25.91h-5a33.51,33.51,0,0,0-3.7-10v-2.61a8,8,0,0,0,3.48-2.18V369.89a5.44,5.44,0,0,0-2.18-.44H405.5v25.91h-4.79V364.88h7c3.31,0,7,1.48,7,5.23v10a4.75,4.75,0,0,1-3.14,4.49,42.75,42.75,0,0,1,3.57,10.76M431,364.88v4.57h-4.79v25.91H421.4V369.45h-4.79v-4.57Zm11.54,0h4.79v25.69c0,3.75-3.66,5.23-7,5.23s-7-1.48-7-5.23V364.88h4.79V390.8a5.66,5.66,0,0,0,4.36,0Zm22.65,8.71a23.54,23.54,0,0,1-4.79.65v-4.79a5.66,5.66,0,0,0-4.36,0V390.8a5.66,5.66,0,0,0,4.36,0V382.3a6.49,6.49,0,0,0-3-2.18v-2.61h7.84v13.07c0,3.75-3.66,5.23-7,5.23s-7-1.48-7-5.23v-20.9c0-3.75,3.66-5.23,7-5.23s7,1.48,7,5.23Zm18.73,21.78h-4.83l-.57-4.09a10.41,10.41,0,0,0-4.18-2l.44-2.61h3.09L476,373.16h-.26l-3.09,22.21h-4.83l4.57-30.49a33.57,33.57,0,0,1,3.61-.22,32.78,32.78,0,0,1,3.57.22Zm7.62-4.57h7.4a32.49,32.49,0,0,1-.44,4.57H486.72V364.88h4.79Z" transform="translate(-269.08 -346.12)" style="fill:#00235a"/></svg>