<svg xmlns="http://www.w3.org/2000/svg" xmlns:xlink="http://www.w3.org/1999/xlink" viewBox="0 0 140.17 205.5"><defs><linearGradient id="a" x1="2314" y1="-2145.55" x2="3070.55" y2="-2582.34" gradientTransform="matrix(0.09, 0, 0, -0.09, -206.59, -79.41)" gradientUnits="userSpaceOnUse"><stop offset="0" stop-color="#147ad1"/><stop offset="1" stop-color="#002d71"/></linearGradient><linearGradient id="b" x1="3668.37" y1="-2124.41" x2="2957.64" y2="-2622.07" xlink:href="#a"/><linearGradient id="c" x1="2851.38" y1="-2466.72" x2="3290.12" y2="-2213.42" xlink:href="#a"/><linearGradient id="d" x1="3146.18" y1="-2031.19" x2="2768.36" y2="-1766.63" xlink:href="#a"/><linearGradient id="e" x1="2924.64" y1="-1749.55" x2="3468.92" y2="-2293.83" xlink:href="#a"/><linearGradient id="f" x1="3307.36" y1="-2250.91" x2="2898.31" y2="-2537.34" xlink:href="#a"/></defs><title>Serie A logo</title><polygon points="2.07 126 70.4 168.6 43.48 126 2.07 126" style="fill:url(#a)"/><polygon points="96.72 126 70.4 168.6 138.13 126 96.72 126" style="fill:url(#b)"/><polygon points="43.48 126 70.4 168.6 70.4 126 43.48 126" style="fill:url(#c)"/><polygon points="70.1 52.35 43.48 126 70.4 126 70.1 52.35" style="fill:url(#d)"/><polygon points="70.1 52.35 70.4 126 96.72 126 70.1 52.35" style="fill:url(#e)"/><polygon points="70.4 126 70.4 168.6 96.72 126 70.4 126" style="fill:url(#f)"/><path d="M580,535.25h0l-54.13-126h-28.1L444,535.25h41.41L512,461.6l12.42,34.31H512l-7.1,21.3h27.22l6.51,18Z" transform="translate(-441.91 -409.25)" style="fill:#008fd7"/><path d="M452.5,614.75a17.05,17.05,0,0,1-5.93-1.06,12.48,12.48,0,0,1-4.49-2.65.46.46,0,0,1,0-.67l3-3.46c.16-.21.35-.22.59,0a11.31,11.31,0,0,0,7.08,2.79,5.31,5.31,0,0,0,3.24-.88,2.79,2.79,0,0,0,1.17-2.34,2.37,2.37,0,0,0-.93-2,7.14,7.14,0,0,0-3.24-1l-1.43-.2Q443,602,443,595.11a7.58,7.58,0,0,1,2.61-6,10.25,10.25,0,0,1,7-2.26,14.61,14.61,0,0,1,9.19,2.82.36.36,0,0,1,.08.59l-2.42,3.62a.37.37,0,0,1-.56.12,11.53,11.53,0,0,0-6.28-2.07,4,4,0,0,0-2.68.82,2.69,2.69,0,0,0-.93,2.13,2.31,2.31,0,0,0,1,1.93,7.25,7.25,0,0,0,3.24,1.06l1.43.2q8.51,1.15,8.51,8.19a7.68,7.68,0,0,1-2.76,6.17c-1.85,1.56-4.46,2.34-7.86,2.34Z" transform="translate(-441.91 -409.25)" style="fill:#002d71"/><path d="M467.14,613.91V587.66a.35.35,0,0,1,.4-.4h17.34a.35.35,0,0,1,.4.4v4.25a.35.35,0,0,1-.4.4H473.23a.21.21,0,0,0-.24.24v5.37a.21.21,0,0,0,.24.24h9.7a.35.35,0,0,1,.4.4v4.22a.35.35,0,0,1-.4.4h-9.7a.21.21,0,0,0-.24.24V609a.21.21,0,0,0,.24.24h11.66a.35.35,0,0,1,.4.4v4.25a.35.35,0,0,1-.4.4H467.54a.35.35,0,0,1-.4-.4Z" transform="translate(-441.91 -409.25)" style="fill:#002d71"/><path d="M510.86,614.31h-5.65a.58.58,0,0,1-.59-.4L500,604h-3.62a.21.21,0,0,0-.24.24v9.67a.35.35,0,0,1-.4.4h-5.05a.35.35,0,0,1-.4-.4V587.66a.35.35,0,0,1,.4-.4h10.78a9.44,9.44,0,0,1,6.66,2.33,7.85,7.85,0,0,1,2.53,6.06,8.21,8.21,0,0,1-1.27,4.55,7.89,7.89,0,0,1-3.54,3l5.33,10.66a.35.35,0,0,1,0,.32A.31.31,0,0,1,510.86,614.31ZM501.12,599a3.78,3.78,0,0,0,2.66-.91,3.51,3.51,0,0,0,0-4.89,3.79,3.79,0,0,0-2.66-.91h-4.78a.21.21,0,0,0-.24.24v6.24a.21.21,0,0,0,.24.24h4.78Z" transform="translate(-441.91 -409.25)" style="fill:#002d71"/><path d="M515.3,613.91V587.66a.35.35,0,0,1,.4-.4h5.05a.35.35,0,0,1,.4.4v26.25a.35.35,0,0,1-.4.4H515.7A.35.35,0,0,1,515.3,613.91Z" transform="translate(-441.91 -409.25)" style="fill:#002d71"/><path d="M526.94,613.91V587.66a.35.35,0,0,1,.4-.4h17.34a.35.35,0,0,1,.4.4v4.25a.35.35,0,0,1-.4.4H533a.21.21,0,0,0-.24.24v5.37a.21.21,0,0,0,.24.24h9.7a.35.35,0,0,1,.4.4v4.22a.35.35,0,0,1-.4.4H533a.21.21,0,0,0-.24.24V609a.21.21,0,0,0,.24.24h11.66a.35.35,0,0,1,.4.4v4.25a.35.35,0,0,1-.4.4H527.34a.35.35,0,0,1-.4-.4Z" transform="translate(-441.91 -409.25)" style="fill:#002d71"/><path d="M557.56,613.91l9.31-26.25a.5.5,0,0,1,.51-.4h5a.49.49,0,0,1,.51.4l9.15,26.25c.08.27,0,.4-.27.4h-5.17a.49.49,0,0,1-.51-.4l-1.55-4.73h-9.46l-1.51,4.73a.5.5,0,0,1-.51.4h-5.21c-.27,0-.36-.13-.28-.4Zm9.15-9.7H573l-3.06-9.46h-.12Z" transform="translate(-441.91 -409.25)" style="fill:#002d71"/></svg>